<svg data-v-423bf9ae="" xmlns="http://www.w3.org/2000/svg" viewBox="0 0 534 90" class="iconLeft"><!----><!----><!----><g data-v-423bf9ae="" id="0c6ef989-b2c3-4192-92e3-de08ba304d53" fill="white" transform="matrix(4.566210257762068,0,0,4.566210257762068,128.06185039313897,10.159815957541376)"><path d="M1.49 8.09L1.49 3.72L1.38 1.74L0.57 1.60L0.57 1.24L2.07 1.27L3.57 1.24L3.57 1.60L2.76 1.74L2.67 2.57L2.63 3.72L2.63 5.17L7.30 5.18L7.32 3.72L7.20 1.74L6.40 1.60L6.40 1.24L7.88 1.27L9.40 1.24L9.40 1.60L8.59 1.74L8.59 1.74Q8.55 1.83 8.53 2.06L8.53 2.06L8.53 2.06Q8.50 2.28 8.50 2.57L8.50 2.57L8.46 3.72L8.46 8.09L8.57 10.07L9.38 10.22L9.38 10.57L7.88 10.53L6.37 10.57L6.37 10.22L7.18 10.07L7.28 9.25L7.32 8.09L7.32 5.84L2.65 5.83L2.63 8.09L2.75 10.07L3.55 10.22L3.55 10.57L2.07 10.53L0.55 10.57L0.55 10.22L1.36 10.07L1.36 10.07Q1.39 9.98 1.42 9.76L1.42 9.76L1.42 9.76Q1.45 9.54 1.45 9.25L1.45 9.25L1.49 8.09ZM14.64 6.64L14.64 6.64L13.95 6.61L13.95 6.61Q13.29 6.61 12.71 6.79L12.71 6.79L12.71 6.79Q12.13 6.96 11.70 7.24L11.70 7.24L11.70 7.24Q11.31 7.53 11.10 7.87L11.10 7.87L11.10 7.87Q10.90 8.21 10.90 8.65L10.90 8.65L10.90 8.65Q10.90 9.13 11.24 9.51L11.24 9.51L11.24 9.51Q11.61 9.88 12.19 9.88L12.19 9.88L12.19 9.88Q13.32 9.88 13.95 9.00L13.95 9.00L13.95 9.00Q14.27 8.54 14.46 7.95L14.46 7.95L14.46 7.95Q14.64 7.35 14.64 6.64ZM14.63 8.79L14.63 8.79L14.63 8.79Q14 10.00 13.30 10.37L13.30 10.37L13.30 10.37Q12.59 10.74 11.95 10.74L11.95 10.74L11.95 10.74Q10.97 10.74 10.37 10.15L10.37 10.15L10.37 10.15Q9.77 9.57 9.77 8.78L9.77 8.78L9.77 8.78Q9.77 7.64 10.97 6.84L10.97 6.84L10.97 6.84Q12.18 6.04 14.07 6.04L14.07 6.04L14.70 6.04L14.70 5.58L14.70 5.58Q14.70 4.60 14.30 4.19L14.30 4.19L14.30 4.19Q13.90 3.77 13.07 3.77L13.07 3.77L13.07 3.77Q12.40 3.77 11.80 3.99L11.80 3.99L11.16 4.24L11.20 4.98L10.91 5.08L10.29 3.67L10.29 3.67Q10.59 3.54 11.28 3.32L11.28 3.32L11.28 3.32Q11.97 3.11 13.24 3.11L13.24 3.11L13.24 3.11Q14.27 3.11 14.95 3.61L14.95 3.61L14.95 3.61Q15.62 4.11 15.62 4.96L15.62 4.96L15.62 8.22L15.62 8.22Q15.62 9.01 15.69 9.44L15.69 9.44L15.69 9.44Q15.76 9.70 15.83 9.85L15.83 9.85L15.83 9.85Q15.87 9.94 15.99 10.06L15.99 10.06L16.54 10.22L16.54 10.58L15.81 10.56L15.41 10.54L15.41 10.54Q15.29 10.54 15.17 10.54L15.17 10.54L15.17 10.54Q15.06 10.54 14.91 10.57L14.91 10.57L14.91 10.57Q14.79 10.57 14.71 10.04L14.71 10.04L14.71 10.04Q14.69 9.78 14.68 9.64L14.68 9.64L14.68 9.64Q14.63 9.11 14.63 8.79ZM22.95 8.34L22.95 8.34L22.95 8.34Q22.95 9.34 22.06 10.04L22.06 10.04L22.06 10.04Q21.17 10.74 19.90 10.74L19.90 10.74L19.90 10.74Q19.15 10.74 18.41 10.50L18.41 10.50L18.41 10.50Q18.06 10.37 17.75 10.21L17.75 10.21L17.75 10.21Q17.43 10.04 17.11 9.83L17.11 9.83L17.65 9.13L18.11 8.42L18.41 8.58L18.12 9.35L18.12 9.35Q18.37 9.57 18.93 9.84L18.93 9.84L18.93 9.84Q19.47 10.07 20.20 10.07L20.20 10.07L20.20 10.07Q20.91 10.07 21.45 9.69L21.45 9.69L21.45 9.69Q21.98 9.31 21.98 8.71L21.98 8.71L21.98 8.71Q21.98 8.14 21.51 7.82L21.51 7.82L21.51 7.82Q20.99 7.49 20.04 7.23L20.04 7.23L20.04 7.23Q18.90 6.90 18.21 6.51L18.21 6.51L18.21 6.51Q17.53 6.11 17.53 5.17L17.53 5.17L17.53 5.17Q17.53 4.22 18.37 3.67L18.37 3.67L18.37 3.67Q18.78 3.40 19.29 3.25L19.29 3.25L19.29 3.25Q19.80 3.11 20.42 3.11L20.42 3.11L20.42 3.11Q21.02 3.11 21.67 3.23L21.67 3.23L21.67 3.23Q22.02 3.30 22.22 3.35L22.22 3.35L22.22 3.35Q22.41 3.41 22.59 3.48L22.59 3.48L22.05 4.91L21.77 4.81L21.79 4.17L21.79 4.17Q21.47 4.02 21.03 3.90L21.03 3.90L21.03 3.90Q20.74 3.82 20.55 3.79L20.55 3.79L20.55 3.79Q20.35 3.77 20.12 3.77L20.12 3.77L20.12 3.77Q19.35 3.77 18.93 4.06L18.93 4.06L18.93 4.06Q18.50 4.36 18.50 4.83L18.50 4.83L18.50 4.83Q18.50 5.31 18.94 5.65L18.94 5.65L18.94 5.65Q19.41 5.96 20.61 6.27L20.61 6.27L20.61 6.27Q21.80 6.59 22.36 7.08L22.36 7.08L22.36 7.08Q22.95 7.53 22.95 8.34ZM29.11 8.34L29.11 8.34L29.11 8.34Q29.11 9.34 28.22 10.04L28.22 10.04L28.22 10.04Q27.33 10.74 26.06 10.74L26.06 10.74L26.06 10.74Q25.31 10.74 24.57 10.50L24.57 10.50L24.57 10.50Q24.22 10.37 23.91 10.21L23.91 10.21L23.91 10.21Q23.59 10.04 23.27 9.83L23.27 9.83L23.81 9.13L24.27 8.42L24.57 8.58L24.28 9.35L24.28 9.35Q24.53 9.57 25.09 9.84L25.09 9.84L25.09 9.84Q25.63 10.07 26.36 10.07L26.36 10.07L26.36 10.07Q27.07 10.07 27.61 9.69L27.61 9.69L27.61 9.69Q28.14 9.31 28.14 8.71L28.14 8.71L28.14 8.71Q28.14 8.14 27.67 7.82L27.67 7.82L27.67 7.82Q27.15 7.49 26.20 7.23L26.20 7.23L26.20 7.23Q25.06 6.90 24.37 6.51L24.37 6.51L24.37 6.51Q23.69 6.11 23.69 5.17L23.69 5.17L23.69 5.17Q23.69 4.22 24.53 3.67L24.53 3.67L24.53 3.67Q24.94 3.40 25.45 3.25L25.45 3.25L25.45 3.25Q25.96 3.11 26.58 3.11L26.58 3.11L26.58 3.11Q27.18 3.11 27.83 3.23L27.83 3.23L27.83 3.23Q28.18 3.30 28.38 3.35L28.38 3.35L28.38 3.35Q28.57 3.41 28.75 3.48L28.75 3.48L28.21 4.91L27.93 4.81L27.95 4.17L27.95 4.17Q27.63 4.02 27.19 3.90L27.19 3.90L27.19 3.90Q26.90 3.82 26.71 3.79L26.71 3.79L26.71 3.79Q26.51 3.77 26.28 3.77L26.28 3.77L26.28 3.77Q25.51 3.77 25.09 4.06L25.09 4.06L25.09 4.06Q24.66 4.36 24.66 4.83L24.66 4.83L24.66 4.83Q24.66 5.31 25.10 5.65L25.10 5.65L25.10 5.65Q25.57 5.96 26.77 6.27L26.77 6.27L26.77 6.27Q27.96 6.59 28.52 7.08L28.52 7.08L28.52 7.08Q29.11 7.53 29.11 8.34ZM34.54 6.64L34.54 6.64L33.85 6.61L33.85 6.61Q33.18 6.61 32.61 6.79L32.61 6.79L32.61 6.79Q32.03 6.96 31.60 7.24L31.60 7.24L31.60 7.24Q31.21 7.53 31.00 7.87L31.00 7.87L31.00 7.87Q30.80 8.21 30.80 8.65L30.80 8.65L30.80 8.65Q30.80 9.13 31.13 9.51L31.13 9.51L31.13 9.51Q31.50 9.88 32.09 9.88L32.09 9.88L32.09 9.88Q33.22 9.88 33.85 9.00L33.85 9.00L33.85 9.00Q34.17 8.54 34.36 7.95L34.36 7.95L34.36 7.95Q34.54 7.35 34.54 6.64ZM34.53 8.79L34.53 8.79L34.53 8.79Q33.90 10.00 33.19 10.37L33.19 10.37L33.19 10.37Q32.49 10.74 31.85 10.74L31.85 10.74L31.85 10.74Q30.87 10.74 30.27 10.15L30.27 10.15L30.27 10.15Q29.67 9.57 29.67 8.78L29.67 8.78L29.67 8.78Q29.67 7.64 30.87 6.84L30.87 6.84L30.87 6.84Q32.07 6.04 33.97 6.04L33.97 6.04L34.60 6.04L34.60 5.58L34.60 5.58Q34.60 4.60 34.20 4.19L34.20 4.19L34.20 4.19Q33.80 3.77 32.97 3.77L32.97 3.77L32.97 3.77Q32.30 3.77 31.69 3.99L31.69 3.99L31.06 4.24L31.10 4.98L30.81 5.08L30.19 3.67L30.19 3.67Q30.49 3.54 31.18 3.32L31.18 3.32L31.18 3.32Q31.87 3.11 33.14 3.11L33.14 3.11L33.14 3.11Q34.17 3.11 34.85 3.61L34.85 3.61L34.85 3.61Q35.52 4.11 35.52 4.96L35.52 4.96L35.52 8.22L35.52 8.22Q35.52 9.01 35.59 9.44L35.59 9.44L35.59 9.44Q35.66 9.70 35.73 9.85L35.73 9.85L35.73 9.85Q35.77 9.94 35.89 10.06L35.89 10.06L36.44 10.22L36.44 10.58L35.71 10.56L35.30 10.54L35.30 10.54Q35.18 10.54 35.07 10.54L35.07 10.54L35.07 10.54Q34.96 10.54 34.80 10.57L34.80 10.57L34.80 10.57Q34.68 10.57 34.61 10.04L34.61 10.04L34.61 10.04Q34.59 9.78 34.58 9.64L34.58 9.64L34.58 9.64Q34.53 9.11 34.53 8.79ZM43.58 5.33L43.58 7.82L43.66 10.07L44.49 10.22L44.49 10.57L43.05 10.53L42.50 10.57L42.50 10.22L42.52 10.07L42.52 6.04L42.52 6.04Q42.52 4.98 42.14 4.47L42.14 4.47L42.14 4.47Q41.76 3.97 40.89 3.97L40.89 3.97L40.89 3.97Q39.97 3.97 39.44 4.71L39.44 4.71L39.44 4.71Q38.91 5.46 38.91 6.68L38.91 6.68L38.91 7.82L38.96 10.07L39.77 10.22L39.77 10.57L38.39 10.53L37.00 10.57L37.00 10.22L37.82 10.07L37.87 7.83L37.87 6.29L37.79 3.93L36.89 3.78L36.89 3.43L36.89 3.43Q37.16 3.43 37.31 3.41L37.31 3.41L37.31 3.41Q37.45 3.40 37.79 3.32L37.79 3.32L37.79 3.32Q38.25 3.25 38.70 3.11L38.70 3.11L39.00 3.11L38.88 4.59L38.88 4.59Q39.46 3.90 40.09 3.50L40.09 3.50L40.09 3.50Q40.71 3.11 41.43 3.11L41.43 3.11L41.43 3.11Q42.38 3.11 42.98 3.72L42.98 3.72L42.98 3.72Q43.58 4.33 43.58 5.33L43.58 5.33ZM50.55 5.81L50.55 5.81L50.55 5.81Q50.55 7.52 51.63 8.71L51.63 8.71L51.63 8.71Q52.70 9.90 54.26 9.90L54.26 9.90L54.26 9.90Q55.13 9.90 55.86 9.53L55.86 9.53L55.86 9.53Q56.60 9.15 57.30 8.54L57.30 8.54L57.63 8.88L57.63 8.88Q57.24 9.31 56.80 9.64L56.80 9.64L56.80 9.64Q56.37 9.97 55.85 10.25L55.85 10.25L55.85 10.25Q54.86 10.76 53.76 10.76L53.76 10.76L53.76 10.76Q51.93 10.76 50.64 9.35L50.64 9.35L50.64 9.35Q49.36 7.94 49.36 5.91L49.36 5.91L49.36 5.91Q49.36 3.81 50.88 2.44L50.88 2.44L50.88 2.44Q52.40 1.06 54.70 1.06L54.70 1.06L54.70 1.06Q55.58 1.06 56.18 1.20L56.18 1.20L56.18 1.20Q56.79 1.33 57.24 1.57L57.24 1.57L57.35 1.61L57.35 1.61Q57.17 2.12 57.07 2.54L57.07 2.54L57.07 2.54Q57.04 2.68 56.98 2.94L56.98 2.94L56.98 2.94Q56.92 3.21 56.87 3.47L56.87 3.47L56.57 3.43L56.46 2.42L56.46 2.42Q56.24 2.25 55.96 2.13L55.96 2.13L55.96 2.13Q55.68 2.01 55.36 1.93L55.36 1.93L55.36 1.93Q55.00 1.86 54.73 1.82L54.73 1.82L54.73 1.82Q54.46 1.79 54.11 1.79L54.11 1.79L54.11 1.79Q52.50 1.79 51.53 2.90L51.53 2.90L51.53 2.90Q50.55 4.00 50.55 5.81ZM59.68 6.97L59.68 7.82L59.75 10.07L60.72 10.22L60.72 10.57L59.16 10.53L57.78 10.57L57.78 10.22L58.60 10.07L58.63 7.83L58.63 6.29L58.57 3.93L57.67 3.78L57.67 3.43L57.67 3.43Q57.93 3.43 58.08 3.41L58.08 3.41L58.08 3.41Q58.23 3.40 58.58 3.32L58.58 3.32L58.58 3.32Q58.93 3.25 59.41 3.11L59.41 3.11L59.68 3.11L59.57 5.29L59.57 5.29Q60.05 4.21 60.62 3.65L60.62 3.65L60.62 3.65Q60.89 3.38 61.19 3.25L61.19 3.25L61.19 3.25Q61.49 3.11 61.83 3.11L61.83 3.11L61.83 3.11Q61.96 3.11 62.09 3.13L62.09 3.13L62.09 3.13Q62.22 3.16 62.36 3.20L62.36 3.20L62.36 3.20Q62.49 3.24 62.60 3.32L62.60 3.32L62.60 3.32Q62.34 3.81 62.15 4.25L62.15 4.25L62.15 4.25Q62.11 4.34 62.03 4.57L62.03 4.57L62.03 4.57Q61.95 4.80 61.91 4.91L61.91 4.91L61.91 4.91Q61.67 4.86 61.62 4.79L61.62 4.79L61.62 4.79Q61.62 4.69 61.65 4.66L61.65 4.66L61.65 4.66Q61.65 4.15 61.55 4.10L61.55 4.10L61.55 4.10Q61.46 4.06 61.34 4.06L61.34 4.06L61.34 4.06Q60.68 4.13 60.19 4.96L60.19 4.96L60.19 4.96Q59.97 5.39 59.82 5.90L59.82 5.90L59.82 5.90Q59.68 6.41 59.68 6.97L59.68 6.97ZM68.82 3.77L68.18 3.62L68.18 3.28L69.30 3.31L70.41 3.28L70.41 3.62L69.99 3.77L69.99 3.77Q69.17 5.54 68.56 7.26L68.56 7.26L67.35 10.74L67.35 10.74Q66.76 12.37 65.93 13.29L65.93 13.29L65.93 13.29Q65.09 14.20 63.82 14.20L63.82 14.20L63.82 14.20Q63.69 14.20 63.55 14.20L63.55 14.20L63.55 14.20Q63.39 14.17 63.30 14.15L63.30 14.15L63.30 14.15Q63.22 14.13 63.14 14.11L63.14 14.11L63.14 14.11Q63.05 14.08 62.91 14.01L62.91 14.01L63.34 12.46L63.69 12.50L63.69 13.11L63.96 13.19L63.96 13.19Q64.14 13.25 64.35 13.25L64.35 13.25L64.35 13.25Q65.10 13.25 65.72 12.52L65.72 12.52L65.72 12.52Q66.34 11.78 66.63 10.90L66.63 10.90L66.77 10.57L66.43 10.57L65.16 7.14L65.16 7.14Q64.53 5.37 63.85 3.78L63.85 3.78L63.22 3.62L63.22 3.28L64.52 3.31L65.82 3.28L65.82 3.62L65.14 3.75L67.09 9.88L67.09 9.88Q67.32 9.17 67.58 8.33L67.58 8.33L67.58 8.33Q67.84 7.49 68.03 6.82L68.03 6.82L68.03 6.82Q68.47 5.29 68.82 3.77L68.82 3.77ZM72.35 10.41L72.35 10.41L72.35 11.35L72.39 13.59L73.36 13.75L73.36 14.10L71.82 14.06L70.44 14.10L70.44 13.75L71.26 13.59L71.30 11.35L71.30 6.29L71.24 3.93L70.33 3.78L70.33 3.43L70.33 3.43Q70.60 3.43 70.73 3.41L70.73 3.41L70.73 3.41Q70.87 3.40 71.26 3.32L71.26 3.32L71.26 3.32Q71.66 3.25 72.16 3.11L72.16 3.11L72.45 3.11L72.34 4.49L72.34 4.49Q72.59 4.15 72.87 3.88L72.87 3.88L72.87 3.88Q73.15 3.61 73.46 3.44L73.46 3.44L73.46 3.44Q73.77 3.28 74.04 3.19L74.04 3.19L74.04 3.19Q74.31 3.11 74.65 3.11L74.65 3.11L74.65 3.11Q75.95 3.11 76.73 4.09L76.73 4.09L76.73 4.09Q77.51 5.08 77.51 6.66L77.51 6.66L77.51 6.66Q77.51 8.34 76.47 9.54L76.47 9.54L76.47 9.54Q75.95 10.14 75.28 10.44L75.28 10.44L75.28 10.44Q74.61 10.74 73.75 10.74L73.75 10.74L73.75 10.74Q73.43 10.74 73.03 10.64L73.03 10.64L73.03 10.64Q72.84 10.59 72.66 10.54L72.66 10.54L72.66 10.54Q72.49 10.49 72.35 10.41ZM72.35 6.49L72.35 9.58L73.06 9.93L73.06 9.93Q73.55 10.15 74.16 10.15L74.16 10.15L74.16 10.15Q75.10 10.15 75.73 9.23L75.73 9.23L75.73 9.23Q76.04 8.77 76.21 8.20L76.21 8.20L76.21 8.20Q76.37 7.64 76.37 6.97L76.37 6.97L76.37 6.97Q76.37 5.56 75.77 4.77L75.77 4.77L75.77 4.77Q75.17 3.97 74.05 3.97L74.05 3.97L74.05 3.97Q73.22 3.97 72.78 4.61L72.78 4.61L72.78 4.61Q72.35 5.25 72.35 6.49L72.35 6.49ZM79.32 3.88L79.32 7.92L79.32 7.92Q79.32 8.96 79.51 9.42L79.51 9.42L79.51 9.42Q79.71 9.88 80.19 9.88L80.19 9.88L80.19 9.88Q80.52 9.88 80.78 9.71L80.78 9.71L80.78 9.71Q81.05 9.54 81.24 9.37L81.24 9.37L81.49 9.62L81.49 9.62Q81.37 9.82 81.15 10.04L81.15 10.04L81.15 10.04Q81.02 10.19 80.84 10.35L80.84 10.35L80.84 10.35Q80.43 10.74 79.73 10.74L79.73 10.74L79.73 10.74Q79.07 10.74 78.67 10.28L78.67 10.28L78.67 10.28Q78.27 9.83 78.27 9.02L78.27 9.02L78.27 3.88L77.43 3.94L77.43 3.54L78.27 3.30L78.20 1.60L79.38 1.27L79.32 3.31L81.10 3.29L80.84 3.91L79.32 3.88ZM88.80 6.92L88.80 6.92L88.80 6.92Q88.80 8.58 87.78 9.66L87.78 9.66L87.78 9.66Q86.75 10.74 85.16 10.74L85.16 10.74L85.16 10.74Q83.57 10.74 82.58 9.66L82.58 9.66L82.58 9.66Q82.12 9.14 81.87 8.45L81.87 8.45L81.87 8.45Q81.63 7.76 81.63 6.92L81.63 6.92L81.63 6.92Q81.63 5.27 82.66 4.19L82.66 4.19L82.66 4.19Q83.69 3.11 85.27 3.11L85.27 3.11L85.27 3.11Q86.87 3.11 87.84 4.18L87.84 4.18L87.84 4.18Q88.80 5.25 88.80 6.92ZM87.68 6.92L87.68 6.92L87.68 6.92Q87.68 5.55 86.95 4.62L86.95 4.62L86.95 4.62Q86.22 3.68 85.13 3.68L85.13 3.68L85.13 3.68Q84.02 3.68 83.39 4.59L83.39 4.59L83.39 4.59Q82.75 5.49 82.75 6.92L82.75 6.92L82.75 6.92Q82.75 7.64 82.93 8.21L82.93 8.21L82.93 8.21Q83.12 8.78 83.49 9.26L83.49 9.26L83.49 9.26Q84.20 10.16 85.30 10.16L85.30 10.16L85.30 10.16Q86.39 10.16 87.04 9.26L87.04 9.26L87.04 9.26Q87.68 8.36 87.68 6.92Z"></path></g><!----><g data-v-423bf9ae="" id="05805705-f8c0-4688-be01-f4d179d145f0" transform="matrix(1.3748224726078118,0,0,1.3748224726078118,-10.377448725634906,-19.37270518509628)" stroke="none" fill="white"><path d="M87.119 40.87l-10.63 7.154v-33.69h-34.71v.005a.995.995 0 0 0-.684.265L23.828 30.78a.99.99 0 0 0-.311.73h-.006V52.33H19.01a5.396 5.396 0 0 0-1.493-2.84 5.395 5.395 0 0 0-3.84-1.592 5.396 5.396 0 0 0-3.842 1.591 5.437 5.437 0 0 0 0 7.682 5.396 5.396 0 0 0 3.841 1.59c1.451 0 2.815-.564 3.84-1.59.805-.804 1.3-1.8 1.494-2.84h14.135v-2h-7.634V32.51h11.523a13.033 13.033 0 0 0 3.779 8.616c2.533 2.533 5.86 3.8 9.187 3.8s6.654-1.267 9.187-3.8a12.905 12.905 0 0 0 3.805-9.186c0-3.47-1.35-6.733-3.805-9.187-4.422-4.422-11.338-4.997-16.408-1.6v-4.82h31.71V49.37l-10.295 6.928-14.51-4.644a1 1 0 1 0-1.022 1.65l15.319 15.77a.999.999 0 0 0 .717.304h.03a1 1 0 0 0 .728-.347l9.033-10.487v19.252H25.51V66.699h4v-2H14.167v3.637a5.387 5.387 0 0 0-2.841 1.494 5.44 5.44 0 0 0 0 7.681 5.397 5.397 0 0 0 3.84 1.591 5.396 5.396 0 0 0 3.841-1.59 5.437 5.437 0 0 0 0-7.682 5.387 5.387 0 0 0-2.84-1.494V66.7h7.344v13.097H76.49V56.222l11.946-13.869a1.001 1.001 0 0 0-1.316-1.482zM16.103 55.759c-1.297 1.296-3.558 1.296-4.853 0-.649-.649-1.006-1.51-1.006-2.427s.357-1.778 1.006-2.427a3.41 3.41 0 0 1 2.426-1.005c.917 0 1.779.357 2.427 1.005a3.436 3.436 0 0 1 0 4.854zM27.042 30.51l13.737-12.87v12.87H27.042zm31.438-7.05a11.913 11.913 0 0 1 3.512 8.48c0 3.203-1.247 6.214-3.512 8.48-4.676 4.675-12.284 4.675-16.96 0a12.032 12.032 0 0 1-3.488-7.91h4.747V22.377c4.717-3.569 11.454-3.165 15.701 1.083zM18.599 73.67a3.41 3.41 0 0 1-1.006 2.427c-1.295 1.296-3.556 1.296-4.853 0a3.437 3.437 0 0 1 0-4.853 3.411 3.411 0 0 1 2.427-1.005 3.41 3.41 0 0 1 2.426 1.005A3.41 3.41 0 0 1 18.6 73.67zm46.055-6.773l-11.772-12.12 11.163 3.574c.292.094.61.048.863-.123l17.159-11.547-17.413 20.216z"></path><path d="M41 55.85h-2v2.879H22.167v2H41zM45.444 37.462c.587 1.2 1.375 1.754 2.75 1.754h1.365v2.345h1.892v-2.345h1.365c1.375 0 2.163-.554 2.75-1.754l1.171-2.385h-2.043l-.723 1.481c-.346.713-.535.802-1.247.81v-.003h-4.439v.003c-.711-.008-.9-.097-1.247-.81l-1.557-3.193c-.22-.443-.385-.757-.385-1.274 0-.572.146-.904.385-1.403l1.594-3.211c.34-.684.475-.77 1.21-.775v.005h4.439v-.005c.736.004.871.091 1.21.775l.664 1.336h2.029l-1.08-2.185c-.623-1.274-1.41-1.772-2.823-1.772h-1.273v-2.527h-1.892v2.527h-1.274c-1.412 0-2.2.498-2.823 1.772l-1.686 3.414c-.367.738-.513 1.237-.513 2.049 0 .72.183 1.31.495 1.938l1.686 3.433z"></path></g><!----></svg>